<svg width="845" height="800" viewBox="0 0 845 800" fill="none" xmlns="http://www.w3.org/2000/svg">
<path d="M649.827 408.094C649.564 498.651 668.777 709.417 844.137 800L0.137329 798.5L0.0682373 0C0.0682373 0 184.488 274.891 609.544 358.035C633.054 362.634 649.897 384.139 649.827 408.094Z" fill="url(#paint0_linear_300_3783)" fill-opacity="0.03"/>
<path d="M552.792 445.958C560.462 527.245 605.124 707.662 844.137 800H0.137329L0.0682373 0C0.0682373 0 90.7883 311.891 510.663 397.091C533.689 401.763 550.585 422.567 552.792 445.958Z" fill="url(#paint1_linear_300_3783)" fill-opacity="0.04"/>
<path d="M844.137 800C610.384 752.338 485.879 557.98 450.119 492.871C442.845 479.629 429.861 470.117 415.023 467.272C27.8094 393.03 1.46228 74.0492 0.0691528 10.8912L0.0682373 0C0.0682373 0 -0.0859375 3.86055 0.0691528 10.8912L0.137329 800H844.137Z" fill="url(#paint2_linear_300_3783)" fill-opacity="0.05"/>
<defs>
<linearGradient id="paint0_linear_300_3783" x1="362.637" y1="242" x2="149.637" y2="800" gradientUnits="userSpaceOnUse">
<stop stop-color="#0067FF"/>
<stop offset="1" stop-color="#0067FF" stop-opacity="0"/>
</linearGradient>
<linearGradient id="paint1_linear_300_3783" x1="376.137" y1="358.5" x2="154.637" y2="800" gradientUnits="userSpaceOnUse">
<stop stop-color="#3385FF"/>
<stop offset="1" stop-color="#3385FF" stop-opacity="0"/>
</linearGradient>
<linearGradient id="paint2_linear_300_3783" x1="312.637" y1="432.5" x2="101.637" y2="800" gradientUnits="userSpaceOnUse">
<stop stop-color="#4D95FF"/>
<stop offset="1" stop-color="white" stop-opacity="0"/>
</linearGradient>
</defs>
</svg>
