<svg width="14" height="14" viewBox="0 0 14 14" fill="none" xmlns="http://www.w3.org/2000/svg">
<path d="M7.00004 0.0292969C3.13407 0.0292969 0 3.16336 0 7.02934C0 10.4967 2.52365 13.3682 5.83257 13.9242V8.48974H4.14396V6.53408H5.83257V5.09205C5.83257 3.41888 6.85449 2.50711 8.34729 2.50711C9.06225 2.50711 9.67667 2.56038 9.85504 2.58385V4.33275L8.81967 4.33325C8.00802 4.33325 7.85153 4.71887 7.85153 5.28494V6.53308H9.78823L9.53563 8.48874H7.85153V13.971C11.3149 13.5495 14 10.6048 14 7.02733C14 3.16336 10.8659 0.0292969 7.00004 0.0292969Z" fill="white"/>
</svg>
