<svg id="play" xmlns="http://www.w3.org/2000/svg" width="80" height="80" viewBox="0 0 80 80">
  <g id="Group_18" data-name="Group 18" transform="translate(0 0)">
    <path id="Path_58" data-name="Path 58" d="M68.285,11.715a40,40,0,1,0,0,56.57A40,40,0,0,0,68.285,11.715ZM57.478,42.449l-12.5,7.177L32.739,56.718a2.6,2.6,0,0,1-1.6.507,2.847,2.847,0,0,1-2.871-2.871V25.562a2.983,2.983,0,0,1,.338-1.435,2.789,2.789,0,0,1,3.884-1.013l12.327,7.092c.084,0,.084.084.169.084l12.5,7.177a4.133,4.133,0,0,1,1.1,1.013A2.966,2.966,0,0,1,57.478,42.449Z" fill="#fff"/>
  </g>
</svg>
