<svg width="7" height="12" viewBox="0 0 7 12" fill="none" xmlns="http://www.w3.org/2000/svg">
<path d="M0.219999 5.28015C0.0793069 5.42066 0.000174494 5.6113 -5.40963e-07 5.81015L-5.07743e-07 6.19015C0.00230352 6.38856 0.0811155 6.57843 0.22 6.72015L5.36 11.8501C5.45388 11.9448 5.58168 11.998 5.715 11.998C5.84832 11.998 5.97612 11.9448 6.07 11.8501L6.78 11.1401C6.87406 11.048 6.92707 10.9218 6.92707 10.7901C6.92707 10.6585 6.87406 10.5323 6.78 10.4401L2.33 6.00015L6.78 1.56015C6.87466 1.46626 6.9279 1.33847 6.9279 1.20515C6.9279 1.07183 6.87466 0.94403 6.78 0.850147L6.07 0.150147C5.97612 0.0554909 5.84832 0.00224825 5.715 0.00224826C5.58168 0.00224828 5.45388 0.055491 5.36 0.150147L0.219999 5.28015Z" fill="#17479D"/>
</svg>
